# xmcd
#
# Track frame offsets:
# 150
# 18636
# 32167
# 45669
# 58604
# 75144
# 86921
# 101359
# 113802
# 127303
# 139800
# 152125
# 166145
# 176107
# 188134
#
# Disc length: 2774 seconds
#
#
# Revision: 0
# Processed by: cddbd v1.5.2PL0 Copyright (c) Steve Scherf et al.
# Submitted via: FreeRIP 2.945 
#
DISCID=c50ad40f
DTITLE=Motryz - Socialait
DYEAR=1900
DGENRE=
TTITLE0=Aviso
TTITLE1=Socialait
TTITLE2=Eu Não Sou de Ferro
TTITLE3=Quem vê Cara
TTITLE4=Falsidade de Mulher
TTITLE5=Meu Recado
TTITLE6=Nossa Canção
TTITLE7=Chega de Mágoas
TTITLE8=Chegou no Limite
TTITLE9=Madrugada Tão Vazia
TTITLE10=Segunda Chance
TTITLE11=Bicho do Mato
TTITLE12=Queria Dar
TTITLE13=Novo Amor
TTITLE14=Aviso (remix)
EXTD=
EXTT0=
EXTT1=
EXTT2=
EXTT3=
EXTT4=
EXTT5=
EXTT6=
EXTT7=
EXTT8=
EXTT9=
EXTT10=
EXTT11=
EXTT12=
EXTT13=
EXTT14=
PLAYORDER=
